<?xml version="1.0" encoding="UTF-8"?>
<svg id="Layer_2" data-name="Layer 2" xmlns="http://www.w3.org/2000/svg" viewBox="0 0 41.09 41.09">
  <defs>
    <style>
      .cls-1 {
        stroke-width: 0px;
      }
    </style>
  </defs>
  <g id="Layer_1-2" data-name="Layer 1">
    <path class="cls-1" d="m17.3,20.53c-1.12-1.12-2.2-2.21-3.28-3.29C9.6,12.82,5.17,8.41.76,3.99-.22,3.01-.25,1.63.66.71c.93-.95,2.32-.95,3.31.04,3.48,3.47,6.95,6.95,10.43,10.43,1.93,1.93,3.86,3.86,5.78,5.79.11.11.22.2.47.42.2-.27.37-.54.58-.75,5.26-5.28,10.53-10.56,15.81-15.83.81-.81,1.79-1.02,2.71-.58.89.42,1.4,1.32,1.31,2.31-.06.65-.41,1.15-.86,1.6-2.94,2.93-5.88,5.87-8.82,8.81-2.4,2.4-4.8,4.8-7.21,7.19-.12.12-.29.19-.48.32.59.59,1.06,1.08,1.54,1.55,4.99,4.98,9.98,9.97,14.98,14.95.7.7,1.08,1.49.79,2.47-.5,1.69-2.53,2.23-3.8,1-1.73-1.69-3.42-3.42-5.13-5.13-3.74-3.74-7.47-7.48-11.21-11.22-.09-.09-.18-.16-.31-.28-.2.19-.39.36-.57.54-5.28,5.29-10.57,10.57-15.84,15.87-.67.68-1.43,1.05-2.38.81-1.74-.43-2.34-2.55-1.08-3.83,2.05-2.07,4.12-4.12,6.18-6.18,3.39-3.38,6.78-6.77,10.17-10.16.09-.09.16-.18.28-.32Z"/>
  </g>
</svg>